# xmcd CD database file
#
# Track frame offsets:
#	150
#	6422
#	17120
#	38950
#	52677
#	66990
#	79547
#	96557
#	113285
#	130779
#	146010
#	167045
#	183925
#	203952
#	221322
#	238737
#
# Disc length: 3436 seconds
#
# Revision: 0
# Processed by: cddbd v1.4b42PL1 Copyright (c) Steve Scherf et al.
# Submitted via: CDex 1.40Beta8
#
DISCID=d60d6a10
DTITLE=Diversos - Rodeo Life
DYEAR=1997
DGENRE=Country
TTITLE0=Introducao
TTITLE1=Alan Jackson - Chattahoochee
TTITLE2=Brooks and Dunn - My Maria
TTITLE3=Pam Tillis - Mi Vida Loca
TTITLE4=Clay Walker - What's It To You
TTITLE5=Kenny Chesney - Fall In Love
TTITLE6=Lorrie Morgan - I Didn't Know My Own Strenght
TTITLE7=Blackhawk - King Of The World
TTITLE8=Daryle Singletary - Amen Kind Of Love
TTITLE9=Martina MacBride - Safe In The Arms Of Love
TTITLE10=Clint Black - No Time To Kill
TTITLE11=Radney Foster - Nobody Wins
TTITLE12=Michelle Wright - Take It Like a Man
TTITLE13=Lee Roy Parnell - What Kind of Fool do You Think i am
TTITLE14=Tammy Graham - Let The Girl Be Herself
TTITLE15=Diamond Rio - Meet Me In The Middle
EXTD=YEAR: 1997 ID3G: 2
EXTT0=
EXTT1=
EXTT2=
EXTT3=
EXTT4=
EXTT5=
EXTT6=
EXTT7=
EXTT8=
EXTT9=
EXTT10=
EXTT11=
EXTT12=
EXTT13=
EXTT14=
EXTT15=
PLAYORDER=
